<svg xmlns="http://www.w3.org/2000/svg" viewBox="0 0 50 50">
  <path d="M38.5 5.5C34.9 1.9 30 0 24.8 0 14.2.1 5.6 8.8 5.7 19.5c0 8.1 10.3 21.7 16.4 29.1.2.2.3.4.5.5.7.6 1.6.9 2.4.9 1.1 0 2.2-.5 3-1.4 6.1-7.4 16.4-21 16.4-29.1v-.4c-.1-5.1-2.2-9.9-5.9-13.6zm1.6 14c0 5.6-7.7 17-15 26-7.3-9-15.1-20.4-15.1-26 0-4 1.5-7.8 4.3-10.7 2.8-2.9 6.6-4.5 10.6-4.5h.1c4 0 7.7 1.5 10.5 4.3 2.9 2.8 4.5 6.6 4.5 10.6v.3zm-10.1.1c0 2.7-2.1 4.9-4.8 5-2.7 0-4.9-2.1-5-4.8v-.1c0-2.7 2.1-4.9 4.8-4.9 2.7-.1 4.9 2.1 5 4.8z" fill="#fff"/>
</svg>
