<svg xmlns="http://www.w3.org/2000/svg" viewBox="0 0 40 40">
  <path d="M17.5 7.5L16.2 5l-2.5-1.2 2.5-1.2L17.5 0l1.2 2.5 2.5 1.2L18.8 5l-1.3 2.5zm-11.3 5L4.1 8.4 0 6.2l4.1-2.1L6.2 0l2.1 4.1 4.1 2.1-4 2.2-2.2 4.1zm27.6 10l2.1 4.1 4.1 2.1-4.1 2.1-2.1 4.2-2.1-4.1-4.1-2.1 4.1-2.1 2.1-4.2zm5.5-15.2c.5.6.7 1.2.7 1.8s-.2 1.2-.7 1.7L10.9 39.3c-.5.5-1 .7-1.7.7s-1.3-.2-1.8-.7L.8 32.7c-.6-.6-.8-1.2-.8-1.8s.2-1.2.7-1.7L29.1.7c.5-.5 1-.7 1.7-.7s1.3.2 1.8.7l6.7 6.6zM28 15.9l6.8-6.7-4-4-6.7 6.8 3.9 3.9z" fill="#fff"/>
</svg>
