<svg xmlns="http://www.w3.org/2000/svg" viewBox="0 0 40 40">
  <path d="M38 4c.5 0 1 .2 1.4.6.4.4.6.9.6 1.4v20c0 .5-.2 1-.6 1.4s-.9.6-1.4.6h-8V8H18v4H8V6c0-.5.2-1 .6-1.4.4-.4.9-.6 1.4-.6h28zm-23.5 6.4V8.6c0-.4-.2-.6-.6-.6H12c-.4 0-.6.2-.6.6v1.9c0 .4.2.6.6.6h1.9c.4-.1.6-.3.6-.7zm22 13v-1.9c0-.4-.2-.6-.6-.6H34c-.4 0-.6.2-.6.6v1.9c0 .4.2.6.6.6h1.9c.4 0 .6-.2.6-.6zm0-6.5V15c0-.4-.2-.6-.6-.6H34c-.4 0-.6.2-.6.6v1.9c0 .4.2.6.6.6h1.9c.4 0 .6-.2.6-.6zm0-6.5V8.6c0-.4-.2-.6-.6-.6H34c-.4 0-.6.2-.6.6v1.9c0 .4.2.6.6.6h1.9c.4-.1.6-.3.6-.7zM26 14c.5 0 1 .2 1.4.6.4.4.6.9.6 1.4v18c0 .5-.2 1-.6 1.4s-.9.6-1.4.6H2c-.5 0-1-.2-1.4-.6C.2 35 0 34.5 0 34V16c0-.5.2-1 .6-1.4.4-.4.9-.6 1.4-.6h24zM7.4 18.6C7 18.2 6.5 18 6 18s-1 .2-1.4.6c-.4.4-.6.9-.6 1.4s.2 1 .6 1.4c.4.4.9.6 1.4.6s1-.2 1.4-.6c.4-.4.6-.9.6-1.4s-.2-1-.6-1.4zM24 32v-6l-6-6-8 8-2-2-4 4v2h20z" fill="#fff"/>
</svg>
