<svg xmlns="http://www.w3.org/2000/svg" viewBox="0 0 40 40">
  <path d="M9.1 17.1L1.6 9.4C.5 8.3 0 6.9 0 5.3c.1-1.6.7-2.9 2-4C3.1.4 4.3 0 5.7.1s2.6.7 3.6 1.7l.7.8.8-.9c1-1 2.2-1.5 3.6-1.7 1.3-.1 2.6.3 3.6 1.3 1.2 1 1.9 2.4 2 4 .1 1.6-.5 3-1.6 4.1l-7.6 7.7c-.2.3-.5.4-.9.4s-.5-.1-.8-.4zM20.4 25c.6 0 1.1.2 1.5.6.4.4.6.9.6 1.5v10.8c0 .3-.1.5-.2.8-.1.3-.3.5-.5.7-.2.2-.4.4-.7.5-.3.1-.5.2-.8.2H2.1c-.6 0-1.1-.2-1.5-.6-.4-.5-.6-1-.6-1.6V27.1c0-.6.2-1.1.6-1.5.5-.4.9-.6 1.5-.6h3.7l.5-1.1c.2-.4.4-.8.8-1 .4-.3.8-.4 1.2-.4h5.6c.4 0 .8.1 1.2.4.4.3.6.6.7 1l.6 1.1h4zm-12 10.4c.8.8 1.7 1.2 2.9 1.2s2.1-.4 2.9-1.2c.8-.8 1.2-1.7 1.2-2.9 0-1.1-.4-2.1-1.2-2.9-.8-.8-1.7-1.2-2.9-1.2s-2.1.4-2.9 1.2-1.2 1.7-1.2 2.9.4 2.1 1.2 2.9zM39 27.5c.4 0 .7.1.9.4.2.3.2.6 0 .8l-7.2 10.9c-.2.3-.5.4-.8.4s-.6-.1-.8-.3c-.2-.2-.3-.4-.2-.7l1.9-6.5H28c-.3 0-.6-.1-.8-.3-.2-.2-.3-.4-.2-.7l1.3-8.4c.1-.5.4-.7.9-.7h5.9c.3 0 .6.1.8.3.2.2.3.4.2.7l-1.7 4H39zM37.3 0c.7-.1 1.4.1 1.9.6s.8 1.1.8 1.9v11.2c0 1-.5 1.9-1.5 2.7-1 .7-2.2 1.1-3.6 1.1s-2.6-.4-3.5-1.1c-1-.7-1.4-1.6-1.4-2.7s.5-1.9 1.4-2.7c1-.7 2.1-1.1 3.6-1.1.4 0 .8.1 1.2.2V6.4l-8.7 1.4v8.4c0 1-.5 1.9-1.5 2.7S23.8 20 22.5 20s-2.6-.4-3.5-1.1-1.4-1.6-1.4-2.7.5-1.9 1.4-2.7c1-.7 2.1-1.1 3.6-1.1.4 0 .8.1 1.2.2V4.3c0-.6.2-1.2.6-1.6.4-.5.9-.8 1.4-.9L37.3 0z" fill="#fff"/>
</svg>
