<svg xmlns="http://www.w3.org/2000/svg" viewBox="0 0 40 40">
  <path d="M23 7.5c-.8.8-1.8 1.2-3 1.2s-2.2-.4-3.1-1.3-1.3-1.9-1.3-3.1.4-2.2 1.3-3.1C17.8.4 18.8 0 20 0s2.2.4 3.1 1.3c.9.9 1.3 1.9 1.3 3.1s-.5 2.2-1.4 3.1zM33.8 35c.4 0 .7.1.9.4s.4.5.4.9v2.5c0 .4-.1.7-.4.9s-.6.3-.9.3H6.2c-.4 0-.7-.1-.9-.4-.2-.2-.3-.5-.3-.8v-2.5c0-.4.1-.7.4-.9.2-.3.5-.4.8-.4h27.6zm5.7-20.6c.4.3.5.6.5 1 0 .2-.1.4-.2.6l-8 16.5H8.1L.2 16c-.1-.2-.2-.4-.2-.5 0-.5.2-.8.5-1.1l2.3-1.2c.6-.4 1.2-.3 1.7.4.3.4.8.8 1.3 1.1.6.2 1.2.3 1.7.3h.2c1-.1 1.8-.5 2.5-1.2s1-1.7 1-2.7c0-.3.1-.5.3-.7s.5-.4.8-.4h3c.6 0 .9.3 1 .8.2.8.6 1.5 1.3 2.1s1.5.9 2.3.9 1.6-.3 2.3-.9 1.2-1.3 1.3-2.1c.1-.5.4-.8 1-.8h3c.3 0 .5.1.7.3s.3.4.3.7c0 .9.3 1.8.9 2.5.6.8 1.3 1.2 2.2 1.4.4.1.6.1.9.1.5 0 1.1-.1 1.6-.4.6-.3 1-.6 1.3-1.1.5-.7 1.1-.8 1.7-.4l2.4 1.3z" fill="#fff"/>
</svg>
