<svg xmlns="http://www.w3.org/2000/svg" viewBox="0 0 40 40">
  <path d="M19.5 0c4.3-.1 7.9 1.3 10.9 4.2S35 10.8 35 15v21.2c0 .6-.3 1-.8 1.2-.5.2-1 .1-1.3-.3L31 35.7c-.6-.5-1.2-.4-1.7.2l-3.4 3.7c-.6.6-1.1.6-1.7 0L21 36c-.3-.3-.6-.4-.9-.4s-.7.1-.9.4L16 39.6c-.6.6-1.1.6-1.7 0l-3.4-3.7c-.5-.6-1.1-.6-1.7-.2L7.1 37c-.4.4-.8.5-1.3.3s-.8-.5-.8-1.1V15.6c0-4.2 1.4-7.8 4.2-10.8S15.5.1 19.5 0zm-6.3 16.8c.5.5 1.1.7 1.8.7s1.3-.2 1.8-.7c.5-.5.7-1.1.7-1.8s-.2-1.3-.7-1.8c-.5-.5-1.1-.7-1.8-.7s-1.3.2-1.8.7c-.5.5-.7 1.1-.7 1.8s.2 1.2.7 1.8zm10 0c.5.5 1.1.7 1.8.7s1.3-.2 1.8-.7c.5-.5.7-1.1.7-1.8s-.2-1.3-.7-1.8-1.1-.7-1.8-.7-1.3.2-1.8.7c-.5.5-.7 1.1-.7 1.8s.2 1.2.7 1.8z" fill="#fff"/>
</svg>
